<?xml version="1.0" standalone="no"?>
<!DOCTYPE svg PUBLIC "-//W3C//DTD SVG 20010904//EN"
 "http://www.w3.org/TR/2001/REC-SVG-20010904/DTD/svg10.dtd">
<svg version="1.0" xmlns="http://www.w3.org/2000/svg"
 width="113.000000pt" height="105.000000pt" viewBox="0 0 113.000000 105.000000"
 preserveAspectRatio="xMidYMid meet">
<metadata>
Created by potrace 1.10, written by Peter Selinger 2001-2011
</metadata>
<g transform="translate(0.000000,105.000000) scale(0.050000,-0.050000)"
fill="#000000" stroke="none">
<path d="M280 1784 c0 -3 61 -109 135 -235 l135 -229 115 0 c135 0 135 0 46
141 l-69 109 228 6 c125 3 336 3 468 0 l240 -6 -69 -110 c-88 -142 -89 -140
49 -140 l119 0 131 229 c73 126 132 232 132 235 0 3 -373 6 -830 6 -456 0
-830 -3 -830 -6z"/>
<path d="M145 1236 c16 -44 427 -755 437 -755 6 -1 36 43 65 98 l54 98 -110
182 c-84 142 -103 186 -80 194 57 22 85 -13 247 -301 189 -336 166 -316 231
-205 67 113 67 109 -49 307 -55 93 -100 176 -100 183 0 9 449 12 557 4 5 -1
-1 -12 -13 -26 -35 -43 -384 -654 -384 -673 0 -29 98 -192 113 -189 8 2 128
204 267 450 223 395 259 448 306 453 69 8 72 19 -54 -197 l-109 -185 53 -107
c29 -59 59 -100 66 -92 8 8 88 146 178 305 90 160 185 324 212 365 26 41 48
81 48 90 0 8 -436 15 -970 15 -533 0 -968 -6 -965 -14z"/>
</g>
</svg>
